<svg version="1.2" xmlns="http://www.w3.org/2000/svg" viewBox="0 0 2600 396" width="2600" height="396"><style>.a{opacity:.1;fill:#4eb7f1}.b{fill:none;stroke:#4eb7f1;stroke-miterlimit:10;stroke-width:8.1}</style><path class="a" d="m2596 395h-2592v-312.8c95.2 88.6 233.8 116.4 362.7 104.8 130.6-11.8 255.2-59.2 379.1-102.4 124-43.1 252.4-82.9 383.4-78.5 276.8 9.3 525.8 213 802.2 196.2 119.5-7.2 232.8-55.8 351.1-74.2 111.4-17.5 240.1-0.3 313.5 83.8z"/><path class="b" d="m4 82.2c95.2 88.6 233.8 116.4 362.7 104.8 130.6-11.8 255.2-59.2 379.1-102.4 124-43.1 252.4-82.9 383.4-78.5 276.8 9.3 525.8 213 802.2 196.2 119.5-7.2 232.8-55.8 351.1-74.2 111.4-17.5 240.1-0.3 313.5 83.8"/></svg>